<svg width="275" height="51" viewBox="0 0 275 51" fill="none" xmlns="http://www.w3.org/2000/svg">
<g clip-path="url(#clip0_149_139)">
<mask id="mask0_149_139" style="mask-type:luminance" maskUnits="userSpaceOnUse" x="91" y="12" width="184" height="27">
<path d="M274.49 12H91V39H274.49V12Z" fill="white"/>
</mask>
<g mask="url(#mask0_149_139)">
<path d="M104.687 22.0281C105.062 19.8461 103.607 18.0608 101.425 18.0608H97.6785C95.4964 18.0608 93.3805 19.8461 93.0058 22.0281L91.7715 28.971C91.3968 31.153 92.8735 32.9383 95.0556 32.9383H95.7609L96.2678 30.0289H95.6066C95.0115 30.0289 94.5927 29.522 94.7029 28.9269L95.8931 22.0942C96.0033 21.4771 96.5985 20.9922 97.1936 20.9922H100.83C101.447 20.9922 101.844 21.4771 101.734 22.0942L100.544 28.9269C100.478 29.2796 100.257 29.5881 99.9487 29.8085L99.7723 28.2877H96.7307L97.5021 34.6575H100.566L100.301 32.6518C101.866 32.0787 103.167 30.6461 103.453 28.971L104.687 22.0281ZM115.201 20.0885L113.57 29.4338C113.504 29.7645 113.217 30.0289 112.887 30.0289H108.875C108.545 30.0289 108.324 29.7645 108.39 29.4338L110.021 20.0885H107.112L105.371 30.0289C105.084 31.6379 106.164 32.9383 107.773 32.9383H112.953C114.584 32.9383 116.105 31.6379 116.391 30.0289L118.132 20.0885H115.201ZM117.972 32.9383L120.22 20.0885H123.13L120.881 32.9383H117.972ZM120.881 16.4077L120.396 19.1408L123.46 18.2591L123.791 16.4077H120.881ZM133.171 30.0289H126.977C126.646 30.0289 126.426 29.7645 126.492 29.4338L127.506 23.593C127.572 23.2624 127.881 23.02 128.211 23.02H133.523L134.912 20.0885H128.123C126.514 20.0885 124.993 21.3889 124.707 23.02L123.473 30.0289C123.186 31.6379 124.266 32.9383 125.875 32.9383H132.664L133.171 30.0289ZM142.434 26.5245L146.357 32.9383H142.632L138.731 26.5245L144.88 20.0885H148.605L142.434 26.5245ZM134.653 32.9383H137.563L140.472 16.4077H137.563L134.653 32.9383ZM158.586 30.0289C157.991 30.0289 157.573 29.522 157.683 28.9269L158.873 22.0942C158.983 21.4771 159.578 20.9922 160.173 20.9922H165.441L166.852 18.0608H160.658C158.476 18.0608 156.36 19.8461 155.986 22.0281L154.751 28.971C154.377 31.153 155.853 32.9383 158.035 32.9383H164.229L164.736 30.0289H158.586ZM179.416 23.02C179.702 21.3889 178.622 20.0885 176.991 20.0885H170.291L168.902 23.02H175.911C176.242 23.02 176.44 23.2624 176.374 23.593L175.25 30.0289H170.004C169.674 30.0289 169.453 29.7645 169.519 29.4338L169.674 28.5522C169.718 28.2436 170.026 27.9791 170.357 27.9791H174.523L174.192 25.0477H170.291C168.682 25.0477 167.139 26.3702 166.852 27.9791L166.5 30.0289C166.213 31.6379 167.293 32.9383 168.902 32.9383H173.288L174.985 31.4836L174.743 32.9383H177.674L179.416 23.02ZM192.309 27.9791C192.596 26.3702 191.538 25.0477 189.907 25.0477H184.661C184.331 25.0477 184.11 24.7832 184.154 24.4747L184.309 23.593C184.375 23.2624 184.683 23.02 185.014 23.02H191.428L192.816 20.0885H184.926C183.317 20.0885 181.796 21.3889 181.509 23.02L181.157 25.0477C180.87 26.6567 181.928 27.9791 183.537 27.9791H188.805C189.136 27.9791 189.334 28.2436 189.29 28.5522L189.136 29.4338C189.069 29.7645 188.783 30.0289 188.452 30.0289H181.157L179.768 32.9383H188.518C190.149 32.9383 191.67 31.6379 191.957 30.0289L192.309 27.9791ZM206.197 23.02C206.484 21.3889 205.404 20.0885 203.773 20.0885H200.07L198.351 21.5432L199.255 16.4077H196.345L193.436 32.9383H196.345L198.086 23.02H202.693C203.024 23.02 203.222 23.2624 203.156 23.593L201.525 32.9383H204.456L206.197 23.02ZM217.362 25.5106L217.957 22.0942C218.067 21.4771 218.663 20.9922 219.258 20.9922H224.724L226.134 18.0608H219.743C217.561 18.0608 215.445 19.8461 215.07 22.0281L213.152 32.9383H216.062L217.098 26.9653H223.357L223.886 24.0338H219.103L217.362 25.5106ZM227.749 32.9383L230.659 16.4077H227.749L224.84 32.9383H227.749ZM240.832 20.0885H234.991C233.382 20.0885 231.861 21.3889 231.575 23.02L230.34 30.0289C230.054 31.6379 231.134 32.9383 232.743 32.9383H238.584C240.215 32.9383 241.735 31.6379 242.022 30.0289L243.256 23.02C243.543 21.3889 242.463 20.0885 240.832 20.0885ZM239.201 29.4338C239.135 29.7645 238.848 30.0289 238.518 30.0289H233.845C233.514 30.0289 233.294 29.7645 233.36 29.4338L234.374 23.593C234.44 23.2624 234.749 23.02 235.079 23.02H239.752C240.082 23.02 240.281 23.2624 240.215 23.593L239.201 29.4338ZM260.294 20.0885L256.613 28.2877L255.82 20.0885H252.8H252.69L249.031 28.2877L248.215 20.0885H245.196L246.452 32.9383H249.957L253.395 25.0257L254.056 32.9383H257.561L263.313 20.0885H260.294Z" fill="#427AE5"/>
<path d="M266.224 17.51C266.224 18.0165 266.324 18.5181 266.518 18.986C266.712 19.454 266.996 19.8792 267.354 20.2374C267.712 20.5956 268.137 20.8797 268.605 21.0735C269.073 21.2674 269.575 21.3671 270.081 21.3671C270.588 21.3671 271.089 21.2674 271.557 21.0735C272.025 20.8797 272.451 20.5956 272.809 20.2374C273.167 19.8792 273.451 19.454 273.645 18.986C273.839 18.5181 273.938 18.0165 273.938 17.51C273.938 17.0034 273.839 16.5019 273.645 16.0339C273.451 15.5659 273.167 15.1407 272.809 14.7826C272.451 14.4244 272.025 14.1403 271.557 13.9464C271.089 13.7526 270.588 13.6528 270.081 13.6528C269.575 13.6528 269.073 13.7526 268.605 13.9464C268.137 14.1403 267.712 14.4244 267.354 14.7826C266.996 15.1407 266.712 15.5659 266.518 16.0339C266.324 16.5019 266.224 17.0034 266.224 17.51Z" stroke="#427AE5" stroke-linecap="round" stroke-linejoin="round"/>
<path d="M269.224 18.7955V16.2241H270.081C270.309 16.2241 270.527 16.3144 270.687 16.4752C270.848 16.6359 270.938 16.8539 270.938 17.0813C270.938 17.3086 270.848 17.5266 270.687 17.6874C270.527 17.8481 270.309 17.9384 270.081 17.9384M270.081 17.9384H269.224M270.081 17.9384L270.938 18.7955" stroke="#427AE5" stroke-linecap="round" stroke-linejoin="round"/>
</g>
</g>
<path d="M3.14866 42.3384L3.52645 40.1783C3.59641 39.7881 3.97421 39.4815 4.35201 39.4815H7.82217L8.71769 37.6282H4.65985C3.27459 37.6282 1.9313 38.757 1.69342 40.1365L0.476074 47.0345H2.32308L2.98074 43.258H6.95462L7.29046 41.4047H4.25407L3.14866 42.3384ZM7.89595 47.0345L9.3232 38.9102H11.1702L9.74298 47.0345H7.89595ZM9.74298 36.583L9.43513 38.311L11.3801 37.7535L11.59 36.583H9.74298ZM19.1679 40.7636C19.3497 39.7324 18.6642 38.9102 17.6287 38.9102H15.2779L14.1865 39.8299L14.3404 38.9102H12.4934L11.0661 47.0345H12.9132L14.0186 40.7636H16.943C17.1529 40.7636 17.2789 40.9169 17.2369 41.1259L16.2014 47.0345H18.0625L19.1679 40.7636ZM28.3011 40.1365C28.539 38.757 27.6155 37.6282 26.2303 37.6282H23.5717C22.1864 37.6282 20.8431 38.757 20.6052 40.1365L19.3879 47.0345H21.2349L22.4383 40.1783C22.5082 39.7881 22.8861 39.4815 23.2638 39.4815H25.8524C26.2442 39.4815 26.4961 39.7881 26.4262 40.1783L26.0483 42.3523H23.3197L22.4243 44.2056H25.7125L25.2229 47.0345H27.0838L28.3011 40.1365ZM37.0959 41.4047H32.8282L33.052 43.258H34.899L34.6892 44.4983C34.6193 44.8745 34.2554 45.1951 33.8637 45.1951H31.275C30.8972 45.1951 30.6314 44.8745 30.7013 44.4983L31.4569 40.1783C31.5269 39.7881 31.9046 39.4815 32.2825 39.4815H35.7526L36.6481 37.6282H32.5903C31.205 37.6282 29.8617 38.757 29.6239 40.1365L28.8403 44.5261C28.6024 45.9057 29.5399 47.0345 30.9252 47.0345H33.5838C34.9691 47.0345 36.2983 45.9057 36.5362 44.5261L37.0959 41.4047ZM46.1146 41.4047H41.8468L42.0707 43.258H43.9177L43.7079 44.4983C43.6378 44.8745 43.2741 45.1951 42.8822 45.1951H40.2936C39.9159 45.1951 39.6499 44.8745 39.72 44.4983L40.4755 40.1783C40.5455 39.7881 40.9233 39.4815 41.3012 39.4815H44.7713L45.6668 37.6282H41.609C40.2237 37.6282 38.8804 38.757 38.6425 40.1365L37.859 44.5261C37.6211 45.9057 38.5586 47.0345 39.9438 47.0345H42.6025C43.9876 47.0345 45.317 45.9057 45.5549 44.5261L46.1146 41.4047Z" fill="#3CAB3D"/>
<path d="M4.47162 2.04692L0 6.11444H41.3766C41.4839 6.11444 41.5873 6.07335 41.665 5.99966L47.2408 0.718997C47.5147 0.459557 47.3304 0 46.9524 0H10.9306C8.28078 6.65166e-06 5.79656 0.846262 4.47162 2.04692Z" fill="#F46E16"/>
<path d="M39.6278 9.44971H16.3464C16.2585 9.44971 16.1728 9.47725 16.1015 9.52844L6.9492 16.1006C6.79971 16.208 6.7383 16.4 6.79796 16.5737L9.93217 25.6979C11.2527 29.5422 16.9221 33.8095 19.8858 35.6559C19.9958 35.7244 20.1286 35.6176 20.0879 35.495L14.4988 18.6817L18.8178 15.3989H25.0517H28.0522C32.0389 15.3989 35.8351 13.7007 38.483 10.7328L39.6278 9.44971Z" fill="#3CAB3D"/>
<path d="M69.75 0.75V50.25" stroke="#9E9E9E" stroke-width="0.75"/>
<defs>
<clipPath id="clip0_149_139">
<rect width="183.49" height="27" fill="white" transform="translate(91 12)"/>
</clipPath>
</defs>
</svg>
